<svg id="Layer_1" data-name="Layer 1" xmlns="http://www.w3.org/2000/svg" viewBox="0 0 463.44 212.9"><defs><style>.cls-1,.cls-3{fill:#d3932a;}.cls-1{stroke:#d3932a;stroke-miterlimit:10;}.cls-2{fill:#fff;}.cls-4{fill:#52758d;}.cls-5{font-size:24.28px;fill:#bbb;font-family:Avenir-Medium, Avenir Medium;font-weight:500;letter-spacing:0.2em;}.cls-6{letter-spacing:0.19em;}.cls-7{letter-spacing:0.19em;}.cls-8{letter-spacing:0.18em;}.cls-9{letter-spacing:0.12em;}.cls-10{letter-spacing:0.19em;}</style></defs><title>Artboard 1</title><line class="cls-1" x1="35.81" y1="110.3" x2="395.67" y2="110.3"/><path class="cls-2" d="M45.82,29.1c0-9.6-.51-12.07-6.35-12.59l-4.15-.39a2.07,2.07,0,0,1,.13-3.24c7-.65,15.82-1,27.89-1,8.17,0,16,.65,21.79,3.63C90.71,18.2,95,23.39,95,31.69,95,41,89.54,45.83,81.76,49.46c0,1.3,1,1.69,2.47,1.95a21.47,21.47,0,0,1,17.38,21.67c0,15-11.16,25.16-34.51,25.16-3.76,0-10.12-.39-15.57-.39-5.71,0-10.12.26-14.92.39-.77-.39-1-2.46-.26-3.24l2.34-.39c6.88-1.17,7.13-2.59,7.13-16.22ZM56.46,46.35c0,3.63.13,3.89,6.75,3.63,13.23-.52,20.37-4.41,20.37-16.6,0-12.72-9.47-17.52-19.33-17.52a15.94,15.94,0,0,0-6,.78c-1.3.39-1.82,1-1.82,3.38Zm0,30.1c0,4.67.26,11.29,2.73,14.14s6.35,3.63,10.25,3.63C81,94.22,89.8,89,89.8,76.06c0-10.25-5.19-22.18-25.81-22.18-7,0-7.53.77-7.53,3.37Z"/><path class="cls-2" d="M123.79,64.64c-3.38,0-3.51.26-3.51,3.51,0,13.1,7.66,24.26,21.54,24.26,4.28,0,7.91-1.3,11.93-6.36a1.72,1.72,0,0,1,2.34,1.56c-4.28,8.82-13.62,12.06-20.37,12.06-8.43,0-15-3.63-18.81-8.56a27.57,27.57,0,0,1-5.45-16.87c0-15.95,10.51-29.32,26.08-29.32,11.15,0,18.42,7.66,18.42,15.44a8,8,0,0,1-.52,3.38c-.39.77-2.2.9-7.65.9Zm8-3.89c9.6,0,12.45-.52,13.49-1.3.39-.26.78-.77.78-2.46,0-3.63-2.47-8.17-10-8.17s-14.27,7-14.4,11.28c0,.26,0,.65.91.65Z"/><path class="cls-2" d="M171,60.62c0-5.06,0-5.71-3.5-8l-1.17-.78a1.78,1.78,0,0,1,.13-2.34,99.56,99.56,0,0,0,13.1-6.35c.65.13,1,.39,1,.91v7.52q0,1,.39,1.17c4.54-3.76,9.47-7.79,14.27-7.79,3.25,0,5.84,2.08,5.84,5.19a5.76,5.76,0,0,1-5.58,6,5,5,0,0,1-2.85-.91A10.69,10.69,0,0,0,187,53.1a5.74,5.74,0,0,0-4.67,2.59c-1.3,1.82-1.69,5.58-1.69,10V83.32c0,9.35.26,10.9,5.19,11.29l4.67.39c.91.65.65,2.85-.26,3.24-6.09-.26-9.86-.39-14.4-.39s-8.56.13-11.93.39c-.91-.39-1.17-2.59-.26-3.24l2.46-.39c4.8-.78,4.93-1.94,4.93-11.29Z"/><path class="cls-2" d="M212,24.69c0-7.66-.13-8.44-4-10.77l-1.3-.78a2,2,0,0,1,0-2.6,91.31,91.31,0,0,0,14-5.44,1.44,1.44,0,0,1,1.3.77c-.13,3.9-.39,10.38-.39,16.09v44.5c0,1.69.13,2,2.34,2,2.85,0,5.32-1.43,8.82-5.06l5.32-5.71c3.63-3.89,4.54-5.32,4.54-6s-.65-1-2.86-1.3L236.64,50c-1.17-.39-1.17-2.85,0-3.24h3a202.36,202.36,0,0,0,20.63-1c.91.39,1,2.6.26,3.25l-4.15.77c-2.59.52-4.8,1.82-8.17,4.54-5.06,4-9.47,8.7-11.81,10.9-1.56,1.43-1.69,2.08-.91,3.12a135.35,135.35,0,0,0,8.7,10.37c5.05,5.71,9.6,10.77,12.19,13.24a13.13,13.13,0,0,0,6.75,2.85l1.81.26c.91.65.78,2.85-.26,3.24-3.76-.26-8.17-.39-12.32-.39-5.19,0-9.73.13-13.49.39-1-.52-1.17-2.72-.26-3.24l2.33-.39c2-.26,3.25-.52,3.25-1.3s-.52-1.68-2.21-3.63L228.08,73.59a5.29,5.29,0,0,0-4-1.81c-2.34,0-2.47.39-2.47,4.41v7.13c0,9.35.26,10.64,4.93,11.29l3.12.39c.9.65.64,2.85-.26,3.24-4.29-.26-8-.39-12.59-.39s-8.56.13-12.45.39c-.91-.39-1.17-2.59-.13-3.24l2.85-.39c4.8-.65,4.93-1.94,4.93-11.29Z"/><path class="cls-2" d="M280,64.64c-3.37,0-3.5.26-3.5,3.51,0,13.1,7.65,24.26,21.54,24.26,4.28,0,7.91-1.3,11.93-6.36a1.72,1.72,0,0,1,2.34,1.56C308,96.43,298.64,99.67,291.9,99.67c-8.43,0-15-3.63-18.81-8.56a27.57,27.57,0,0,1-5.45-16.87c0-15.95,10.51-29.32,26.07-29.32,11.16,0,18.43,7.66,18.43,15.44a8,8,0,0,1-.52,3.38c-.39.77-2.21.9-7.66.9ZM288,60.75c9.6,0,12.45-.52,13.49-1.3.39-.26.78-.77.78-2.46,0-3.63-2.47-8.17-10-8.17s-14.27,7-14.4,11.28c0,.26,0,.65.91.65Z"/><path class="cls-2" d="M335.48,83.32c0,9.35.26,10.64,4.93,11.29l3.12.39c.9.65.64,2.85-.26,3.24-4.28-.26-8-.39-12.59-.39s-8.56.13-12.45.39c-.91-.39-1.17-2.59-.26-3.24l3-.39c4.8-.65,4.93-1.94,4.93-11.29V24.69c0-7.66-.13-8.44-4-10.77l-1.3-.78a2,2,0,0,1,0-2.6,91.31,91.31,0,0,0,14-5.44,1.44,1.44,0,0,1,1.3.77c-.13,3.9-.39,10.38-.39,16.09Z"/><path class="cls-2" d="M363.37,64.64c-3.37,0-3.5.26-3.5,3.51,0,13.1,7.65,24.26,21.53,24.26,4.28,0,7.92-1.3,11.94-6.36a1.71,1.71,0,0,1,2.33,1.56c-4.28,8.82-13.62,12.06-20.36,12.06-8.44,0-15.05-3.63-18.82-8.56a27.56,27.56,0,0,1-5.44-16.87c0-15.95,10.5-29.32,26.07-29.32,11.16,0,18.42,7.66,18.42,15.44a8.26,8.26,0,0,1-.51,3.38c-.39.77-2.21.9-7.66.9Zm8-3.89c9.6,0,12.46-.52,13.5-1.3.39-.26.77-.77.77-2.46,0-3.63-2.46-8.17-10-8.17s-14.28,7-14.4,11.28c0,.26,0,.65.9.65Z"/><path class="cls-2" d="M401,124.58a4.83,4.83,0,0,1,5.19-5.19h2.46a4.71,4.71,0,0,0,4.28-2.33,82.92,82.92,0,0,0,7.53-14.41,19.55,19.55,0,0,0,1.29-5.57c0-2.6-.51-4.16-2.2-9L409.42,60.36c-2.21-6.1-3.11-9.21-7.65-10.12l-3.25-.65c-.78-.64-.65-2.85.39-3.24,4.15.26,8,.39,12.33.39,3.5,0,7.13-.13,11.28-.39,1,.39,1.17,2.6.26,3.24l-3.24.65c-1.82.39-2.86.78-2.86,1.69,0,1.56,3,10,3.77,12.19l4.15,11.94c.78,2.08,3.24,9,3.76,9.21.39-.26,2.47-4.28,4.8-9.6l4.41-10.25c2.86-6.74,4.54-11.54,4.54-13,0-.91-.78-1.82-3.11-2.21l-4-.65c-.91-.64-.78-2.85.26-3.24,4.15.26,8,.39,11.41.39s6.23-.13,9.86-.39a2.16,2.16,0,0,1,.26,3.24l-2.2.39c-4.28.78-6.62,4.54-11,13.76l-7.27,14.91c-4.28,8.7-14.92,31.27-21.27,45.41-2.21,4.93-5.32,6.1-8.3,6.1C402.93,130.16,401,127.82,401,124.58Z"/><path class="cls-3" d="M29.22,65.17v2.39H7.84v7.86H5.71V57.3H7.84v7.87Z"/><path class="cls-3" d="M5.71,53.11V50.72h10.2V37.91H5.71V35.52H29.22v2.39H18.1V50.72H29.22v2.39Z"/><path class="cls-3" d="M27.09,26.22V13.64h2.13v15H5.71V14H7.84V26.22h8.07V14.83H18V26.22Z"/><path class="cls-4" d="M228.53,127.81a13.39,13.39,0,0,0-4.71-3.24,16.41,16.41,0,0,0-6.4-1.21,15.51,15.51,0,0,0-6.47,1.3,14.48,14.48,0,0,0-4.92,3.56,16,16,0,0,0-3.12,5.23,18,18,0,0,0-1.1,6.34,18.43,18.43,0,0,0,1.1,6.42,15.62,15.62,0,0,0,3.12,5.23,14.07,14.07,0,0,0,5,3.5,16.41,16.41,0,0,0,6.59,1.28,25.87,25.87,0,0,0,5.32-.52,15.38,15.38,0,0,0,4.22-1.51V142.8h-9.08v-4.86h14.75v19.84a30.15,30.15,0,0,1-7.05,2.66,35.28,35.28,0,0,1-8.34.92,23.78,23.78,0,0,1-8.82-1.59,19.9,19.9,0,0,1-11.42-11.28,24.15,24.15,0,0,1,0-17.47,19.76,19.76,0,0,1,4.57-6.76,20.81,20.81,0,0,1,6.91-4.37,23.62,23.62,0,0,1,8.68-1.56,24.83,24.83,0,0,1,8.76,1.44,18.56,18.56,0,0,1,6.39,3.88Z"/><path class="cls-4" d="M248.37,160.32h-5.72V119.37h13.13a24.93,24.93,0,0,1,5.61.61,13.91,13.91,0,0,1,4.65,1.93,9.69,9.69,0,0,1,3.16,3.5,11.16,11.16,0,0,1,1.15,5.3,9.89,9.89,0,0,1-2.77,7.29,12.93,12.93,0,0,1-7.18,3.52l11.46,18.8h-6.95L254.5,142.1h-6.13Zm0-23H255a19.3,19.3,0,0,0,3.76-.35,9.39,9.39,0,0,0,3-1.12,6.29,6.29,0,0,0,2.06-8.22,5.77,5.77,0,0,0-2-2,8.72,8.72,0,0,0-2.92-1.07,18.25,18.25,0,0,0-3.53-.32h-7Z"/><path class="cls-4" d="M319.46,139.79a22.58,22.58,0,0,1-1.64,8.7,20.85,20.85,0,0,1-4.55,6.83,20.36,20.36,0,0,1-6.88,4.45,23.22,23.22,0,0,1-8.68,1.59,23,23,0,0,1-8.64-1.59,20,20,0,0,1-11.37-11.28,22.76,22.76,0,0,1-1.62-8.7A23,23,0,0,1,277.7,131a19.61,19.61,0,0,1,4.51-6.76,20.49,20.49,0,0,1,6.86-4.37,23.37,23.37,0,0,1,8.64-1.56,23.62,23.62,0,0,1,8.68,1.56,20.48,20.48,0,0,1,6.88,4.37,20.14,20.14,0,0,1,4.55,6.76A22.83,22.83,0,0,1,319.46,139.79Zm-6.19,0a18,18,0,0,0-1.1-6.34,16,16,0,0,0-3.12-5.23,14.56,14.56,0,0,0-4.89-3.56,16.5,16.5,0,0,0-12.84,0,14.24,14.24,0,0,0-4.86,3.56,16.31,16.31,0,0,0-3.09,5.23,18.25,18.25,0,0,0-1.1,6.34,18.66,18.66,0,0,0,1.1,6.42,15.62,15.62,0,0,0,3.12,5.23,14.34,14.34,0,0,0,4.86,3.5,15.34,15.34,0,0,0,6.36,1.28,15.76,15.76,0,0,0,6.42-1.28,14.2,14.2,0,0,0,4.92-3.5,15.62,15.62,0,0,0,3.12-5.23A18.43,18.43,0,0,0,313.27,139.79Z"/><path class="cls-4" d="M342.89,161.36a17.13,17.13,0,0,1-7.06-1.35,14.43,14.43,0,0,1-5-3.62,14.73,14.73,0,0,1-2.92-5.18,19.18,19.18,0,0,1-1-6v-25.8h5.73v25.45a16.66,16.66,0,0,0,.52,4.14,10.58,10.58,0,0,0,1.71,3.67,8.57,8.57,0,0,0,3.12,2.6,12.2,12.2,0,0,0,9.63,0,8.51,8.51,0,0,0,3.15-2.6,10.58,10.58,0,0,0,1.71-3.67,16.66,16.66,0,0,0,.52-4.14V119.37h5.73v25.8a19.18,19.18,0,0,1-1,6,14.73,14.73,0,0,1-2.92,5.18,14.43,14.43,0,0,1-5,3.62A17.13,17.13,0,0,1,342.89,161.36Z"/><path class="cls-4" d="M368.46,119.37H381a25.58,25.58,0,0,1,6,.66,13.19,13.19,0,0,1,4.63,2.06,9.37,9.37,0,0,1,2.95,3.53,11.69,11.69,0,0,1,1,5.14,11.45,11.45,0,0,1-1.13,5.27,9.66,9.66,0,0,1-3.13,3.58,13.94,13.94,0,0,1-4.74,2.06,25.35,25.35,0,0,1-5.93.66h-6.48v18h-5.72Zm5.72,18.1h6.08a18.4,18.4,0,0,0,3.84-.37,9.59,9.59,0,0,0,3-1.16,5.45,5.45,0,0,0,2-2.05,6.5,6.5,0,0,0,.69-3.13,6.09,6.09,0,0,0-.72-3.09,5.88,5.88,0,0,0-2-2,8.55,8.55,0,0,0-3-1.09,20.12,20.12,0,0,0-3.76-.32h-6.19Z"/><text class="cls-5" transform="translate(56.71 201.81)">A <tspan class="cls-6" x="29.72" y="0">M</tspan><tspan x="53.86" y="0">AN</tspan><tspan class="cls-7" x="94.41" y="0">A</tspan><tspan x="113.76" y="0">GEMENT </tspan><tspan class="cls-8" x="240.05" y="0">C</tspan><tspan x="258.49" y="0">OM</tspan><tspan class="cls-9" x="304.45" y="0">P</tspan><tspan x="320.19" y="0">A</tspan><tspan class="cls-10" x="339.9" y="0">N</tspan><tspan x="360.57" y="0">Y</tspan></text></svg>