<svg id="Layer_1" data-name="Layer 1" xmlns="http://www.w3.org/2000/svg" viewBox="0 0 263.52 69.33"><defs><style>.cls-1{fill:#a8aaa8;}.cls-2{fill:#c8cdcd;}.cls-3{fill:#3e3933;}.cls-4{fill:#7096b3;}.cls-5{fill:#4a6678;}</style></defs><title>Artboard 1</title><polygon class="cls-1" points="35.8 59.78 33.47 64.2 6 6.93 10.45 6.93 35.8 59.78"/><polygon class="cls-1" points="41.83 48.36 39.5 52.78 17.51 6.93 21.96 6.93 41.83 48.36"/><polygon class="cls-1" points="47.86 36.93 45.53 41.35 29.02 6.93 33.47 6.93 47.86 36.93"/><polygon class="cls-2" points="37.93 64.21 33.47 64.21 63.69 6.93 68.14 6.93 37.93 64.21"/><polygon class="cls-2" points="49.44 64.21 44.98 64.21 75.2 6.93 79.65 6.93 49.44 64.21"/><polygon class="cls-2" points="60.95 64.21 56.49 64.21 86.71 6.93 91.16 6.93 60.95 64.21"/><polygon class="cls-3" points="35.8 59.78 33.47 64.2 32.05 61.23 34.38 56.81 35.8 59.78"/><polygon class="cls-3" points="41.83 48.36 39.5 52.78 38.08 49.8 40.41 45.38 41.83 48.36"/><polygon class="cls-3" points="47.86 36.93 45.53 41.35 44.11 38.37 46.44 33.95 47.86 36.93"/><polygon class="cls-4" points="35.8 59.78 33.47 64.2 6 6.93 10.45 6.93 35.8 59.78"/><polygon class="cls-4" points="41.83 48.36 39.5 52.78 17.51 6.93 21.96 6.93 41.83 48.36"/><polygon class="cls-4" points="47.86 36.93 45.53 41.35 29.02 6.93 33.47 6.93 47.86 36.93"/><polygon class="cls-2" points="37.93 64.21 33.47 64.21 63.69 6.93 68.14 6.93 37.93 64.21"/><polygon class="cls-2" points="49.44 64.21 44.98 64.21 75.2 6.93 79.65 6.93 49.44 64.21"/><polygon class="cls-2" points="60.95 64.21 56.49 64.21 86.71 6.93 91.16 6.93 60.95 64.21"/><polygon class="cls-5" points="35.8 59.78 33.47 64.2 32.05 61.23 34.38 56.81 35.8 59.78"/><polygon class="cls-5" points="41.83 48.36 39.5 52.78 38.08 49.8 40.41 45.38 41.83 48.36"/><polygon class="cls-5" points="47.86 36.93 45.53 41.35 44.11 38.37 46.44 33.95 47.86 36.93"/><path class="cls-4" d="M94.68,16h2.43l5.82,14.34a30,30,0,0,1,.9,2.86,27.12,27.12,0,0,1,.9-2.86L110.52,16h2.27L104,37.41h-.37Z"/><path class="cls-4" d="M124.18,15.82h.37l9,21.38h-2.36l-1.93-4.76h-9.71l-1.9,4.76h-2.2Zm4.26,14.69-3.26-8.09a20.87,20.87,0,0,1-.81-2.52c0,.06-.44,1.52-.84,2.49l-3.24,8.12Z"/><polygon class="cls-4" points="140.64 16.04 142.88 16.04 142.88 35.2 152.87 35.2 152.87 37.2 140.64 37.2 140.64 16.04"/><rect class="cls-4" x="160.25" y="16.04" width="2.27" height="21.16"/><path class="cls-4" d="M178.55,15.82h.37l9,21.38h-2.36l-1.93-4.76h-9.71L172,37.2h-2.21Zm4.26,14.69-3.27-8.09a23,23,0,0,1-.81-2.52c0,.06-.43,1.52-.84,2.49l-3.23,8.12Z"/><path class="cls-4" d="M198.4,22.48a23.58,23.58,0,0,1-1.46-1.93c0,.16.18,1.53.18,2.37V37.2H195V15.82h.37L208,30.76c.57.68,1.38,1.83,1.47,2,0-.07-.16-1.5-.16-2.4V16h2.09V37.41H211Z"/><path class="cls-4" d="M219.1,26.62A10.59,10.59,0,0,1,230,15.79c3.74,0,6.6,1.4,8.41,4.11l-1.71,1.24a7.74,7.74,0,0,0-6.7-3.33c-4.94,0-8.52,3.77-8.52,8.81s3.58,8.8,8.52,8.8a8.11,8.11,0,0,0,7-3.55l1.74,1.22A10.13,10.13,0,0,1,230,37.44,10.58,10.58,0,0,1,219.1,26.62"/><polygon class="cls-4" points="246.02 16.04 258.9 16.04 258.9 18.03 248.25 18.03 248.25 25.59 257.75 25.59 257.75 27.55 248.25 27.55 248.25 35.2 259.33 35.2 259.33 37.2 246.02 37.2 246.02 16.04"/><path class="cls-2" d="M126.53,56a4.22,4.22,0,0,0,1.78-.35,6.1,6.1,0,0,0,1.55-1.11l1.29,1.32A5.9,5.9,0,0,1,126.59,58a6.13,6.13,0,0,1-4.46-1.72,6.29,6.29,0,0,1,0-8.78,6.26,6.26,0,0,1,4.56-1.76,5.93,5.93,0,0,1,4.6,2l-1.27,1.39a5.7,5.7,0,0,0-1.6-1.14,4.55,4.55,0,0,0-1.77-.32,4.24,4.24,0,0,0-3,1.16,4,4,0,0,0-1.22,3,4.14,4.14,0,0,0,1.21,3A4,4,0,0,0,126.53,56"/><path class="cls-2" d="M142.05,55.15l-1.19,2.69h-2.13L144,46h2.13l5.22,11.85h-2.13L148,55.15Zm5.12-1.85L145,48.42l-2.15,4.88Z"/><path class="cls-2" d="M167.72,47A3.9,3.9,0,0,1,169,50.21a3.77,3.77,0,0,1-1.27,3.16,6.22,6.22,0,0,1-3.87,1h-2.1v3.47h-2V46h4.07a6.06,6.06,0,0,1,3.93,1m-1.41,4.89a2.63,2.63,0,0,0,.6-1.87,1.93,1.93,0,0,0-.77-1.73,4.36,4.36,0,0,0-2.38-.51h-2v4.74H164a3.14,3.14,0,0,0,2.27-.63"/><rect class="cls-2" x="178.09" y="46" width="2" height="11.84"/><polygon class="cls-2" points="194.63 47.83 194.63 57.84 192.63 57.84 192.63 47.83 189.04 47.83 189.04 45.99 198.22 45.99 198.22 47.83 194.63 47.83"/><path class="cls-2" d="M207.91,55.15l-1.19,2.69h-2.13L209.81,46H212l5.21,11.85H215l-1.19-2.69ZM213,53.3l-2.15-4.88-2.15,4.88Z"/><polygon class="cls-2" points="225.59 57.84 225.59 45.99 227.59 45.99 227.59 55.94 232.99 55.94 232.99 57.84 225.59 57.84"/></svg>